<?xml version="1.0" encoding="utf-8"?>
<svg viewBox="-41.1 -131.899 1082.2 604.108" width="1082.2" height="604.108" xmlns="http://www.w3.org/2000/svg">
  <g transform="matrix(1, 0, 0, 1, -102.700027, -3.391438)">
    <polygon fill="#C5C5C5" points="1113.5,323.6 1106.2,323.6 1106.2,342.7 1099.8,342.7 1099.8,323.6 1092.4,323.6 1092.4,318.1 &#10;&#9;&#9;1113.5,318.1 1113.5,323.6 &#9;"/>
    <polygon fill="#C5C5C5" points="1116.4,318.1 1125.8,318.1 1130.1,334.5 1130.1,334.5 1134.4,318.1 1143.8,318.1 1143.8,342.7 &#10;&#9;&#9;1137.8,342.7 1137.8,324 1137.7,324 1132.6,342.7 1127.7,342.7 1122.5,324 1122.4,324 1122.4,342.7 1116.4,342.7 1116.4,318.1 &#9;"/>
  </g>
  <g transform="matrix(1, 0, 0, 1, -102.700027, -3.391438)">
    <g>
      <path fill="#C5C5C5" d="M859.4,341.3c-9,3.8-18,5.7-27.1,5.7c-14.4,0-27.4-2.5-38.9-7.5c-11.5-5-21.2-11.9-29.1-20.7 c-7.9-8.8-14-19.1-18.2-31c-4.2-11.9-6.3-24.7-6.3-38.4c0-14.1,2.1-27.1,6.3-39.2c4.2-12.1,10.2-22.6,18.1-31.5 c7.9-9,17.6-16,29.1-21.1c11.5-5.1,24.4-7.7,38.9-7.7c9.7,0,19,1.5,28,4.4c9,2.9,17.2,7.2,24.5,12.8c7.3,5.6,13.3,12.6,18,20.9 c4.7,8.3,7.6,17.8,8.7,28.5H872c-2.5-10.5-7.2-18.4-14.2-23.7c-7-5.3-15.5-7.9-25.6-7.9c-9.3,0-17.2,1.8-23.7,5.4 c-6.5,3.6-11.8,8.4-15.8,14.5c-4,6.1-7,13-8.8,20.7c-1.8,7.7-2.8,15.7-2.8,24c0,7.9,0.9,15.6,2.8,23.1c1.8,7.5,4.8,14.2,8.8,20.2 c4,6,9.3,10.8,15.8,14.4c6.5,3.6,14.4,5.4,23.7,5.4c13.7,0,24.3-3.5,31.8-10.4c7.5-6.9,11.8-16.9,13.1-30.1h-41.6V241h78.9v101.7 h-26.3l-4.2-21.3C876.6,330.9,868.4,337.5,859.4,341.3z"/>
      <path fill="#C5C5C5" d="M981.5,154.6v153.1h91.7v34.9H940.2v-188H981.5z"/>
    </g>
    <path fill="#C5C5C5" d="M786.3,366c-63.1,38.4-157.7,60.2-263.2,60.2c-190.1,0-344.1-79.1-344.1-176.8 c0-97.6,154.1-176.8,344.1-176.8c105.9,0,200.8,22.3,263.9,60.9C718.2,68.8,594.6,23.4,453.4,23.3C237,23.3,61.6,124.5,61.6,249.4 c0,124.9,175.4,226.2,391.7,226.2C594,475.6,717.2,430.3,786.3,366z"/>
  </g>
  <g transform="matrix(1, 0, 0, 1, -102.700027, -3.391438)">
    <polygon fill="#C5C5C5" points="439.6,139.9 403.3,296.9 359.5,139.9 326.3,139.9 282.5,296.9 246.2,139.9 211.9,139.9 &#10;&#9;&#9;265.7,344.6 297.9,344.6 343.2,183.8 387.9,344.6 420.2,344.6 475.9,139.9 &#9;"/>
    <path fill="#C5C5C5" d="M566.5,226.1c-5-7.1-11.3-12.5-18.7-16.2c-7.6-3.8-16.4-5.7-26.2-5.7c-11,0-20.9,2-29.5,5.9 c-8.1,3.7-15,9.2-20.6,16.3c-10.3,13.1-15.7,31.6-15.7,53.5c0,9.7,1.4,18.9,4.1,27.1c2.7,8.3,6.8,15.6,12,21.7 c11,12.8,26.7,19.6,45.4,19.6c9.8,0,17.8-1,24.5-3.1c5.8-1.8,9.7-4.2,12.9-6.3c4.1-2.7,7.8-6,11.2-9.8c2.8-3.3,5.3-6.9,7.5-10.8 c3.8-7,5.7-13.6,6.1-17l0.3-2.3h-26.7l-0.1,1.9c-0.7,8.7-12.1,24.2-32.4,24.2c-29,0-35.9-21-36.4-39.5h97.2v-2.1 c0-11.9-1.2-22.8-3.6-32.3C575.1,241.3,571.4,232.9,566.5,226.1z M518.5,228.2c21.5,0,33,11.6,35.1,35.4h-69.6 C485.1,244.3,500.4,228.2,518.5,228.2z"/>
    <path fill="#C5C5C5" d="M715.7,245.7c-2.6-8.3-6.4-15.6-11.3-21.7c-5.1-6.3-11.3-11.2-18.4-14.6c-7.4-3.5-15.7-5.3-24.7-5.3h0 c-8.3,0.1-15.8,1.9-22.4,5.4c-5.5,2.8-10.4,6.8-14.6,11.8v-62.8h-26.6v186H623v-12.7c2.2,2.9,5.1,6,8.9,8.7 c7.2,5.2,16.1,7.8,26.4,7.8c11.1,0,21.1-2.5,29.5-7.4c7.5-4.4,13.9-10.7,18.9-18.7c4.4-7,7.7-15.3,9.9-24.6 c1.9-8,2.9-16.8,2.9-25.4C719.6,262.9,718.3,253.9,715.7,245.7z M691.8,275.9c0,14.6-2.9,26.8-8.5,35.4 c-5.9,9.1-14.5,13.7-25.5,13.7c-15.9,0-34.5-11.1-34.5-42.5c0-15,1.9-26.6,5.7-35.4c5.5-12.7,14.8-18.8,28.3-18.8 c14.4,0,24.1,5.6,29.5,17.3C691.2,255.2,691.8,266.9,691.8,275.9z"/>
  </g>
  <path d="M 56.699 -32.657 L 68.999 -102.657 L 84.199 -102.657 L 98.699 -58.257 L 128.499 -102.657 L 143.699 -102.657 L 131.399 -32.657 L 118.599 -32.657 L 127.099 -80.957 L 100.899 -42.657 L 90.799 -42.657 L 77.999 -80.957 L 69.499 -32.657 Z" style="fill: rgb(197, 197, 197); white-space: pre;"/>
  <path d="M 161.392 -31.457 Q 152.992 -31.457 149.092 -35.307 Q 145.192 -39.157 145.192 -44.557 Q 145.192 -52.557 151.892 -57.257 Q 158.592 -61.957 169.792 -61.957 L 182.392 -61.957 L 182.592 -63.157 Q 182.692 -63.757 182.742 -64.407 Q 182.792 -65.057 182.792 -65.557 Q 182.792 -69.357 180.392 -71.207 Q 177.992 -73.057 174.292 -73.057 Q 170.392 -73.057 167.142 -71.207 Q 163.892 -69.357 162.492 -65.757 L 149.992 -65.757 Q 151.492 -71.157 155.242 -75.157 Q 158.992 -79.157 164.392 -81.307 Q 169.792 -83.457 176.092 -83.457 Q 185.292 -83.457 190.542 -79.357 Q 195.792 -75.257 195.792 -67.557 Q 195.792 -66.557 195.692 -65.407 Q 195.592 -64.257 195.392 -63.157 L 189.992 -32.657 L 178.592 -32.657 L 179.092 -40.357 Q 176.192 -36.557 171.842 -34.007 Q 167.492 -31.457 161.392 -31.457 Z M 166.092 -41.457 Q 171.592 -41.457 175.242 -45.057 Q 178.892 -48.657 180.592 -53.957 L 169.792 -53.957 Q 164.792 -53.957 161.892 -51.957 Q 158.992 -49.957 158.992 -46.457 Q 158.992 -43.957 160.942 -42.707 Q 162.892 -41.457 166.092 -41.457 Z" style="fill: rgb(197, 197, 197); white-space: pre;"/>
  <path d="M 224.377 -31.457 Q 218.177 -31.457 213.777 -34.357 Q 209.377 -37.257 206.977 -42.257 Q 204.577 -47.257 204.577 -53.457 Q 204.577 -61.957 208.327 -68.757 Q 212.077 -75.557 218.427 -79.507 Q 224.777 -83.457 232.577 -83.457 Q 238.777 -83.457 242.577 -81.207 Q 246.377 -78.957 248.277 -75.457 L 253.377 -104.657 L 266.177 -104.657 L 253.477 -32.657 L 242.077 -32.657 L 241.877 -39.757 Q 239.077 -36.457 234.827 -33.957 Q 230.577 -31.457 224.377 -31.457 Z M 229.277 -42.657 Q 233.977 -42.657 237.627 -45.107 Q 241.277 -47.557 243.427 -51.657 Q 245.577 -55.757 245.577 -60.657 Q 245.577 -65.857 242.477 -69.057 Q 239.377 -72.257 233.977 -72.257 Q 229.277 -72.257 225.627 -69.957 Q 221.977 -67.657 219.877 -63.757 Q 217.777 -59.857 217.777 -54.957 Q 217.777 -49.757 220.827 -46.207 Q 223.877 -42.657 229.277 -42.657 Z" style="fill: rgb(197, 197, 197); white-space: pre;"/>
  <path d="M 290.47 -31.457 Q 280.57 -31.457 274.72 -37.157 Q 268.87 -42.857 268.87 -52.557 Q 268.87 -58.857 271.07 -64.457 Q 273.27 -70.057 277.37 -74.307 Q 281.47 -78.557 287.12 -81.007 Q 292.77 -83.457 299.57 -83.457 Q 306.17 -83.457 310.87 -80.907 Q 315.57 -78.357 318.12 -73.907 Q 320.67 -69.457 320.67 -63.757 Q 320.67 -61.357 320.22 -58.807 Q 319.77 -56.257 319.17 -54.357 L 281.47 -54.357 Q 281.47 -53.557 281.47 -52.657 Q 281.47 -47.657 284.47 -44.807 Q 287.47 -41.957 292.27 -41.957 Q 296.07 -41.957 299.02 -43.707 Q 301.97 -45.457 303.87 -48.257 L 316.87 -48.257 Q 314.57 -43.457 310.62 -39.657 Q 306.67 -35.857 301.52 -33.657 Q 296.37 -31.457 290.47 -31.457 Z M 297.87 -73.057 Q 293.27 -73.057 289.17 -70.407 Q 285.07 -67.757 283.17 -62.357 L 307.87 -62.357 Q 307.97 -63.157 307.97 -63.457 Q 308.07 -67.857 305.27 -70.457 Q 302.47 -73.057 297.87 -73.057 Z" style="fill: rgb(197, 197, 197); white-space: pre;"/>
  <path d="M 378.762 -31.457 Q 372.162 -31.457 366.912 -33.757 Q 361.662 -36.057 358.662 -40.807 Q 355.662 -45.557 355.662 -52.757 Q 355.662 -55.857 356.262 -59.457 L 363.862 -102.657 L 376.662 -102.657 L 369.062 -59.457 Q 368.762 -58.257 368.662 -57.107 Q 368.562 -55.957 368.562 -54.957 Q 368.562 -49.057 371.862 -46.157 Q 375.162 -43.257 381.062 -43.257 Q 387.962 -43.257 392.662 -47.257 Q 397.362 -51.257 398.762 -59.457 L 406.462 -102.657 L 419.262 -102.657 L 411.662 -59.457 Q 409.962 -49.857 405.112 -43.657 Q 400.262 -37.457 393.412 -34.457 Q 386.562 -31.457 378.762 -31.457 Z" style="fill: rgb(197, 197, 197); white-space: pre;"/>
  <path d="M 441.458 -31.457 Q 434.658 -31.457 429.908 -33.757 Q 425.158 -36.057 422.758 -40.057 Q 420.358 -44.057 420.758 -49.157 L 433.558 -49.157 Q 433.458 -45.657 435.858 -43.457 Q 438.258 -41.257 443.058 -41.257 Q 447.258 -41.257 449.608 -43.057 Q 451.958 -44.857 451.958 -47.657 Q 451.958 -50.157 449.458 -51.307 Q 446.958 -52.457 443.058 -53.357 Q 438.958 -54.357 435.058 -55.957 Q 431.158 -57.557 428.608 -60.157 Q 426.058 -62.757 426.058 -66.857 Q 426.058 -71.657 428.908 -75.407 Q 431.758 -79.157 436.758 -81.307 Q 441.758 -83.457 448.258 -83.457 Q 457.058 -83.457 462.158 -79.257 Q 467.258 -75.057 467.058 -67.857 L 454.758 -67.857 Q 454.658 -70.457 452.508 -72.057 Q 450.358 -73.657 446.858 -73.657 Q 443.258 -73.657 441.008 -72.107 Q 438.758 -70.557 438.758 -68.257 Q 438.758 -66.057 441.408 -64.907 Q 444.058 -63.757 448.358 -62.757 Q 453.058 -61.657 456.808 -60.057 Q 460.558 -58.457 462.808 -55.907 Q 465.058 -53.357 465.058 -49.257 Q 465.058 -43.857 461.958 -39.857 Q 458.858 -35.857 453.508 -33.657 Q 448.158 -31.457 441.458 -31.457 Z" style="fill: rgb(197, 197, 197); white-space: pre;"/>
  <path d="M 492.553 -89.657 Q 489.053 -89.657 486.803 -91.807 Q 484.553 -93.957 484.553 -97.157 Q 484.553 -100.357 486.803 -102.507 Q 489.053 -104.657 492.553 -104.657 Q 496.053 -104.657 498.303 -102.507 Q 500.553 -100.357 500.553 -97.157 Q 500.553 -93.957 498.303 -91.807 Q 496.053 -89.657 492.553 -89.657 Z M 474.753 -32.657 L 483.453 -82.257 L 496.253 -82.257 L 487.553 -32.657 Z" style="fill: rgb(197, 197, 197); white-space: pre;"/>
  <path d="M 501.253 -32.657 L 509.953 -82.257 L 521.253 -82.257 L 520.953 -74.057 Q 524.053 -78.357 528.753 -80.907 Q 533.453 -83.457 539.253 -83.457 Q 546.953 -83.457 551.203 -79.207 Q 555.453 -74.957 555.453 -66.957 Q 555.453 -64.157 554.853 -60.657 L 549.853 -32.657 L 537.053 -32.657 L 541.853 -59.457 Q 541.953 -60.657 542.103 -61.707 Q 542.253 -62.757 542.253 -63.657 Q 542.253 -72.657 533.353 -72.657 Q 528.053 -72.657 523.953 -68.907 Q 519.853 -65.157 518.653 -58.657 L 514.053 -32.657 Z" style="fill: rgb(197, 197, 197); white-space: pre;"/>
  <path d="M 585.545 -47.457 Q 581.945 -47.457 578.945 -48.257 L 575.145 -45.057 Q 576.945 -43.957 579.645 -43.307 Q 582.345 -42.657 587.345 -42.257 Q 596.845 -41.457 600.845 -37.907 Q 604.845 -34.357 604.845 -28.857 Q 604.845 -23.157 601.495 -18.807 Q 598.145 -14.457 592.345 -11.957 Q 586.545 -9.457 579.045 -9.457 Q 569.445 -9.457 563.645 -12.957 Q 557.845 -16.457 557.845 -23.357 Q 557.845 -27.657 560.195 -31.207 Q 562.545 -34.757 566.745 -37.557 Q 563.445 -39.257 561.645 -41.357 L 562.045 -43.657 L 571.945 -52.357 Q 568.145 -56.257 568.145 -62.157 Q 568.145 -68.057 571.345 -72.907 Q 574.545 -77.757 579.895 -80.607 Q 585.245 -83.457 591.845 -83.457 Q 596.045 -83.457 599.445 -82.257 L 618.245 -82.257 L 616.845 -74.457 L 608.245 -73.857 Q 609.045 -71.457 609.045 -68.757 Q 609.045 -62.757 605.895 -57.957 Q 602.745 -53.157 597.395 -50.307 Q 592.045 -47.457 585.545 -47.457 Z M 587.245 -57.157 Q 591.945 -57.157 594.995 -59.957 Q 598.045 -62.757 598.045 -67.157 Q 598.045 -70.257 595.845 -71.957 Q 593.645 -73.657 590.145 -73.657 Q 585.345 -73.657 582.295 -70.807 Q 579.245 -67.957 579.245 -63.657 Q 579.245 -60.557 581.395 -58.857 Q 583.545 -57.157 587.245 -57.157 Z M 569.945 -25.857 Q 569.945 -22.557 572.895 -20.857 Q 575.845 -19.157 580.645 -19.157 Q 585.745 -19.157 589.295 -21.307 Q 592.845 -23.457 592.845 -27.457 Q 592.845 -29.757 591.095 -31.457 Q 589.345 -33.157 584.245 -33.457 Q 580.145 -33.757 576.545 -34.457 Q 573.145 -32.757 571.545 -30.507 Q 569.945 -28.257 569.945 -25.857 Z" style="fill: rgb(197, 197, 197); white-space: pre;"/>
</svg>