<?xml version="1.0" encoding="utf-8"?>
<svg viewBox="-41.1 -121.851 1082.2 594.059" width="1082.2" height="594.059" xmlns="http://www.w3.org/2000/svg">
  <g transform="matrix(1, 0, 0, 1, -102.700027, -3.391438)">
    <polygon fill="#C5C5C5" points="1113.5,323.6 1106.2,323.6 1106.2,342.7 1099.8,342.7 1099.8,323.6 1092.4,323.6 1092.4,318.1 &#10;&#9;&#9;1113.5,318.1 1113.5,323.6 &#9;"/>
    <polygon fill="#C5C5C5" points="1116.4,318.1 1125.8,318.1 1130.1,334.5 1130.1,334.5 1134.4,318.1 1143.8,318.1 1143.8,342.7 &#10;&#9;&#9;1137.8,342.7 1137.8,324 1137.7,324 1132.6,342.7 1127.7,342.7 1122.5,324 1122.4,324 1122.4,342.7 1116.4,342.7 1116.4,318.1 &#9;"/>
  </g>
  <g transform="matrix(1, 0, 0, 1, -102.700027, -3.391438)">
    <g>
      <path fill="#C5C5C5" d="M859.4,341.3c-9,3.8-18,5.7-27.1,5.7c-14.4,0-27.4-2.5-38.9-7.5c-11.5-5-21.2-11.9-29.1-20.7 c-7.9-8.8-14-19.1-18.2-31c-4.2-11.9-6.3-24.7-6.3-38.4c0-14.1,2.1-27.1,6.3-39.2c4.2-12.1,10.2-22.6,18.1-31.5 c7.9-9,17.6-16,29.1-21.1c11.5-5.1,24.4-7.7,38.9-7.7c9.7,0,19,1.5,28,4.4c9,2.9,17.2,7.2,24.5,12.8c7.3,5.6,13.3,12.6,18,20.9 c4.7,8.3,7.6,17.8,8.7,28.5H872c-2.5-10.5-7.2-18.4-14.2-23.7c-7-5.3-15.5-7.9-25.6-7.9c-9.3,0-17.2,1.8-23.7,5.4 c-6.5,3.6-11.8,8.4-15.8,14.5c-4,6.1-7,13-8.8,20.7c-1.8,7.7-2.8,15.7-2.8,24c0,7.9,0.9,15.6,2.8,23.1c1.8,7.5,4.8,14.2,8.8,20.2 c4,6,9.3,10.8,15.8,14.4c6.5,3.6,14.4,5.4,23.7,5.4c13.7,0,24.3-3.5,31.8-10.4c7.5-6.9,11.8-16.9,13.1-30.1h-41.6V241h78.9v101.7 h-26.3l-4.2-21.3C876.6,330.9,868.4,337.5,859.4,341.3z"/>
      <path fill="#C5C5C5" d="M981.5,154.6v153.1h91.7v34.9H940.2v-188H981.5z"/>
    </g>
    <path fill="#C5C5C5" d="M786.3,366c-63.1,38.4-157.7,60.2-263.2,60.2c-190.1,0-344.1-79.1-344.1-176.8 c0-97.6,154.1-176.8,344.1-176.8c105.9,0,200.8,22.3,263.9,60.9C718.2,68.8,594.6,23.4,453.4,23.3C237,23.3,61.6,124.5,61.6,249.4 c0,124.9,175.4,226.2,391.7,226.2C594,475.6,717.2,430.3,786.3,366z"/>
  </g>
  <g transform="matrix(1, 0, 0, 1, -102.700027, -3.391438)">
    <polygon fill="#C5C5C5" points="439.6,139.9 403.3,296.9 359.5,139.9 326.3,139.9 282.5,296.9 246.2,139.9 211.9,139.9 &#10;&#9;&#9;265.7,344.6 297.9,344.6 343.2,183.8 387.9,344.6 420.2,344.6 475.9,139.9 &#9;"/>
    <path fill="#C5C5C5" d="M566.5,226.1c-5-7.1-11.3-12.5-18.7-16.2c-7.6-3.8-16.4-5.7-26.2-5.7c-11,0-20.9,2-29.5,5.9 c-8.1,3.7-15,9.2-20.6,16.3c-10.3,13.1-15.7,31.6-15.7,53.5c0,9.7,1.4,18.9,4.1,27.1c2.7,8.3,6.8,15.6,12,21.7 c11,12.8,26.7,19.6,45.4,19.6c9.8,0,17.8-1,24.5-3.1c5.8-1.8,9.7-4.2,12.9-6.3c4.1-2.7,7.8-6,11.2-9.8c2.8-3.3,5.3-6.9,7.5-10.8 c3.8-7,5.7-13.6,6.1-17l0.3-2.3h-26.7l-0.1,1.9c-0.7,8.7-12.1,24.2-32.4,24.2c-29,0-35.9-21-36.4-39.5h97.2v-2.1 c0-11.9-1.2-22.8-3.6-32.3C575.1,241.3,571.4,232.9,566.5,226.1z M518.5,228.2c21.5,0,33,11.6,35.1,35.4h-69.6 C485.1,244.3,500.4,228.2,518.5,228.2z"/>
    <path fill="#C5C5C5" d="M715.7,245.7c-2.6-8.3-6.4-15.6-11.3-21.7c-5.1-6.3-11.3-11.2-18.4-14.6c-7.4-3.5-15.7-5.3-24.7-5.3h0 c-8.3,0.1-15.8,1.9-22.4,5.4c-5.5,2.8-10.4,6.8-14.6,11.8v-62.8h-26.6v186H623v-12.7c2.2,2.9,5.1,6,8.9,8.7 c7.2,5.2,16.1,7.8,26.4,7.8c11.1,0,21.1-2.5,29.5-7.4c7.5-4.4,13.9-10.7,18.9-18.7c4.4-7,7.7-15.3,9.9-24.6 c1.9-8,2.9-16.8,2.9-25.4C719.6,262.9,718.3,253.9,715.7,245.7z M691.8,275.9c0,14.6-2.9,26.8-8.5,35.4 c-5.9,9.1-14.5,13.7-25.5,13.7c-15.9,0-34.5-11.1-34.5-42.5c0-15,1.9-26.6,5.7-35.4c5.5-12.7,14.8-18.8,28.3-18.8 c14.4,0,24.1,5.6,29.5,17.3C691.2,255.2,691.8,266.9,691.8,275.9z"/>
  </g>
  <path d="M 75.815 -11.705 L 89.591 -90.105 L 118.599 -90.105 Q 126.775 -90.105 132.151 -87.249 Q 137.527 -84.393 140.103 -79.689 Q 142.679 -74.985 142.679 -69.385 Q 142.679 -60.873 138.535 -54.769 Q 134.391 -48.665 127.055 -45.361 Q 119.719 -42.057 110.199 -42.057 L 95.527 -42.057 L 90.151 -11.705 Z M 97.543 -53.705 L 111.319 -53.705 Q 119.159 -53.705 123.527 -57.457 Q 127.895 -61.209 127.895 -68.265 Q 127.895 -72.857 124.983 -75.657 Q 122.071 -78.457 115.687 -78.457 L 101.911 -78.457 Z" style="fill: rgb(197, 197, 197); white-space: pre;"/>
  <path d="M 168.769 -10.361 Q 161.489 -10.361 156.001 -13.609 Q 150.513 -16.857 147.433 -22.401 Q 144.353 -27.945 144.353 -35.113 Q 144.353 -42.169 146.873 -48.273 Q 149.393 -54.377 153.929 -58.969 Q 158.465 -63.561 164.513 -66.081 Q 170.561 -68.601 177.505 -68.601 Q 184.897 -68.601 190.441 -65.465 Q 195.985 -62.329 199.121 -56.841 Q 202.257 -51.353 202.257 -44.073 Q 202.257 -36.905 199.681 -30.801 Q 197.105 -24.697 192.569 -20.105 Q 188.033 -15.513 181.929 -12.937 Q 175.825 -10.361 168.769 -10.361 Z M 170.673 -22.793 Q 175.489 -22.793 179.297 -25.481 Q 183.105 -28.169 185.345 -32.817 Q 187.585 -37.465 187.585 -43.289 Q 187.585 -49.449 184.169 -52.809 Q 180.753 -56.169 175.937 -56.169 Q 171.233 -56.169 167.369 -53.481 Q 163.505 -50.793 161.265 -46.145 Q 159.025 -41.497 159.025 -35.673 Q 159.025 -29.513 162.441 -26.153 Q 165.857 -22.793 170.673 -22.793 Z" style="fill: rgb(197, 197, 197); white-space: pre;"/>
  <path d="M 217.255 -11.705 L 210.759 -67.257 L 224.871 -67.257 L 227.559 -27.273 L 245.815 -67.257 L 261.719 -67.257 L 265.863 -27.161 L 282.663 -67.257 L 296.775 -67.257 L 270.791 -11.705 L 255.895 -11.705 L 251.303 -53.257 L 232.151 -11.705 Z" style="fill: rgb(197, 197, 197); white-space: pre;"/>
  <path d="M 321.749 -10.361 Q 310.661 -10.361 304.109 -16.745 Q 297.557 -23.129 297.557 -33.993 Q 297.557 -41.049 300.021 -47.321 Q 302.485 -53.593 307.077 -58.353 Q 311.669 -63.113 317.997 -65.857 Q 324.325 -68.601 331.941 -68.601 Q 339.333 -68.601 344.597 -65.745 Q 349.861 -62.889 352.717 -57.905 Q 355.573 -52.921 355.573 -46.537 Q 355.573 -43.849 355.069 -40.993 Q 354.565 -38.137 353.893 -36.009 L 311.669 -36.009 Q 311.669 -35.113 311.669 -34.105 Q 311.669 -28.505 315.029 -25.313 Q 318.389 -22.121 323.765 -22.121 Q 328.021 -22.121 331.325 -24.081 Q 334.629 -26.041 336.757 -29.177 L 351.317 -29.177 Q 348.741 -23.801 344.317 -19.545 Q 339.893 -15.289 334.125 -12.825 Q 328.357 -10.361 321.749 -10.361 Z M 330.037 -56.953 Q 324.885 -56.953 320.293 -53.985 Q 315.701 -51.017 313.573 -44.969 L 341.237 -44.969 Q 341.349 -45.865 341.349 -46.201 Q 341.461 -51.129 338.325 -54.041 Q 335.189 -56.953 330.037 -56.953 Z" style="fill: rgb(197, 197, 197); white-space: pre;"/>
  <path d="M 361.829 -11.705 L 371.573 -67.257 L 384.453 -67.257 L 384.005 -57.177 Q 387.925 -62.329 393.693 -65.465 Q 399.461 -68.601 406.517 -68.601 L 403.829 -53.481 L 399.909 -53.481 Q 392.741 -53.481 387.589 -50.177 Q 382.437 -46.873 380.869 -38.025 L 376.165 -11.705 Z" style="fill: rgb(197, 197, 197); white-space: pre;"/>
  <path d="M 432.611 -10.361 Q 421.523 -10.361 414.971 -16.745 Q 408.419 -23.129 408.419 -33.993 Q 408.419 -41.049 410.883 -47.321 Q 413.347 -53.593 417.939 -58.353 Q 422.531 -63.113 428.859 -65.857 Q 435.187 -68.601 442.803 -68.601 Q 450.195 -68.601 455.459 -65.745 Q 460.723 -62.889 463.579 -57.905 Q 466.435 -52.921 466.435 -46.537 Q 466.435 -43.849 465.931 -40.993 Q 465.427 -38.137 464.755 -36.009 L 422.531 -36.009 Q 422.531 -35.113 422.531 -34.105 Q 422.531 -28.505 425.891 -25.313 Q 429.251 -22.121 434.627 -22.121 Q 438.883 -22.121 442.187 -24.081 Q 445.491 -26.041 447.619 -29.177 L 462.179 -29.177 Q 459.603 -23.801 455.179 -19.545 Q 450.755 -15.289 444.987 -12.825 Q 439.219 -10.361 432.611 -10.361 Z M 440.899 -56.953 Q 435.747 -56.953 431.155 -53.985 Q 426.563 -51.017 424.435 -44.969 L 452.099 -44.969 Q 452.211 -45.865 452.211 -46.201 Q 452.323 -51.129 449.187 -54.041 Q 446.051 -56.953 440.899 -56.953 Z" style="fill: rgb(197, 197, 197); white-space: pre;"/>
  <path d="M 497.458 -10.361 Q 490.514 -10.361 485.586 -13.609 Q 480.658 -16.857 477.97 -22.457 Q 475.282 -28.057 475.282 -35.001 Q 475.282 -44.521 479.482 -52.137 Q 483.682 -59.753 490.794 -64.177 Q 497.906 -68.601 506.642 -68.601 Q 513.586 -68.601 517.842 -66.081 Q 522.098 -63.561 524.226 -59.641 L 529.938 -92.345 L 544.274 -92.345 L 530.05 -11.705 L 517.282 -11.705 L 517.058 -19.657 Q 513.922 -15.961 509.162 -13.161 Q 504.402 -10.361 497.458 -10.361 Z M 502.946 -22.905 Q 508.21 -22.905 512.298 -25.649 Q 516.386 -28.393 518.794 -32.985 Q 521.202 -37.577 521.202 -43.065 Q 521.202 -48.889 517.73 -52.473 Q 514.258 -56.057 508.21 -56.057 Q 502.946 -56.057 498.858 -53.481 Q 494.77 -50.905 492.418 -46.537 Q 490.066 -42.169 490.066 -36.681 Q 490.066 -30.857 493.482 -26.881 Q 496.898 -22.905 502.946 -22.905 Z" style="fill: rgb(197, 197, 197); white-space: pre;"/>
  <path d="M 573.948 -11.705 L 587.836 -90.105 L 619.42 -90.105 Q 630.172 -90.105 635.66 -85.457 Q 641.148 -80.809 641.148 -73.081 Q 641.148 -65.353 636.388 -59.697 Q 631.628 -54.041 624.124 -52.137 Q 629.724 -50.905 633.084 -46.649 Q 636.444 -42.393 636.444 -36.569 Q 636.444 -29.065 632.412 -23.465 Q 628.38 -17.865 621.604 -14.785 Q 614.828 -11.705 606.54 -11.705 Z M 596.348 -57.065 L 611.244 -57.065 Q 618.076 -57.065 622.052 -60.593 Q 626.028 -64.121 626.028 -70.169 Q 626.028 -74.201 623.284 -76.553 Q 620.54 -78.905 614.94 -78.793 L 600.156 -78.793 Z M 590.3 -23.129 L 606.428 -23.129 Q 613.596 -23.129 617.852 -27.049 Q 622.108 -30.969 622.108 -37.241 Q 622.108 -41.497 618.972 -43.961 Q 615.836 -46.425 610.236 -46.425 L 594.444 -46.425 Z" style="fill: rgb(197, 197, 197); white-space: pre;"/>
  <path d="M 647.53 12.935 L 665.338 -15.401 L 661.978 -15.401 L 649.546 -67.257 L 664.89 -67.257 L 673.85 -28.169 L 696.922 -67.257 L 712.154 -67.257 L 662.65 12.935 Z" style="fill: rgb(197, 197, 197); white-space: pre;"/>
</svg>